<svg xmlns="http://www.w3.org/2000/svg" width="16" height="16" viewBox="0 0 16 16" fill="none">
  <path fill-rule="evenodd" clip-rule="evenodd" d="M8 1C4.13401 1 1 4.13401 1 8C1 11.1006 3.02391 13.7286 5.82638 14.6369C6.17638 14.7003 6.30596 14.4883 6.30596 14.3054C6.30596 14.1408 6.30008 13.6737 6.2969 13.0565C4.43004 13.4766 4.02204 12.1676 4.02204 12.1676C3.70345 11.3725 3.24489 11.1616 3.24489 11.1616C2.61165 10.7303 3.29229 10.7391 3.29229 10.7391C3.99168 10.789 4.35939 11.4596 4.35939 11.4596C4.98203 12.5186 5.9899 12.2125 6.31862 12.035C6.38101 11.5849 6.56219 11.279 6.76233 11.1065C5.28435 10.932 3.73001 10.3522 3.73001 7.80895C3.73001 7.05656 4.00453 6.44389 4.37294 5.96499C4.30381 5.79038 4.06131 5.09468 4.43827 4.15233C4.43827 4.15233 5.02565 3.96671 6.28956 4.85572C6.78957 4.70181 7.33261 4.62485 7.87247 4.62218C8.41233 4.62485 8.95537 4.70181 9.45538 4.85572C10.7181 3.96671 11.3045 4.15233 11.3045 4.15233C11.6825 5.09468 11.44 5.79038 11.3709 5.96499C11.7402 6.44389 12.0138 7.05656 12.0138 7.80895C12.0138 10.359 10.4562 10.9299 8.97413 11.1008C9.22117 11.3155 9.44189 11.7402 9.44189 12.3898C9.44189 13.3175 9.43306 14.0684 9.43306 14.3054C9.43306 14.4895 9.5609 14.7033 9.91686 14.636C12.7175 13.7267 14.74 11.0996 14.74 8C14.74 4.13401 11.606 1 8 1Z" fill="currentColor"></path>
</svg>